# xmcd
#
# Track frame offsets:
# 150
# 18867
# 35352
# 50475
# 70495
# 88535
# 116547
# 131702
# 147575
# 166730
# 183640
# 197635
#
# Disc length: 2819 seconds
#
#
# Revision: 8
# Processed by: cddbd v1.5PL3 Copyright (c) Steve Scherf et al.
# Submitted via: FreeRIP 2.70 
#
DISCID=a80b010c
DTITLE=Morcheeba - Charango
DYEAR=2002
DGENRE=Jazz
TTITLE0=Slow Down
TTITLE1=Otherwise
TTITLE2=Aqualung
TTITLE3=Sao Paolo
TTITLE4=Charango
TTITLE5=What New York Couples Fight About
TTITLE6=Undress Me Now
TTITLE7=Way Beyond
TTITLE8=Woman Lose Weight
TTITLE9=Get Along
TTITLE10=Public Displays Of Affection
TTITLE11=The Great London Traffic Warden Massacre
EXTD=YEAR: 2002
EXTT0=
EXTT1=
EXTT2=
EXTT3=
EXTT4=
EXTT5=
EXTT6=
EXTT7=
EXTT8=
EXTT9=
EXTT10=
EXTT11=
PLAYORDER=
